####
#
# OBJ File Generated by Meshlab
#
####
# Object 1017_default_fluid.obj
#
# Vertices: 8
# Faces: 12
#
####
mtllib ./1017_default_fluid.obj.mtl

vn -1.570796 -1.570796 1.570796
v -0.769529 -1.033977 0.769529 0.752941 0.752941 0.752941
vn -1.570796 1.570796 1.570796
v -0.769529 -0.409348 0.769529 0.752941 0.752941 0.752941
vn -1.570796 -1.570796 -1.570796
v -0.769529 -1.033977 -0.769529 0.752941 0.752941 0.752941
vn -1.570796 1.570796 -1.570796
v -0.769529 -0.409348 -0.769529 0.752941 0.752941 0.752941
vn 1.570796 -1.570796 1.570796
v 0.769529 -1.033977 0.769529 0.752941 0.752941 0.752941
vn 1.570796 1.570796 1.570796
v 0.769529 -0.409348 0.769529 0.752941 0.752941 0.752941
vn 1.570796 -1.570796 -1.570796
v 0.769529 -1.033977 -0.769529 0.752941 0.752941 0.752941
vn 1.570796 1.570796 -1.570796
v 0.769529 -0.409348 -0.769529 0.752941 0.752941 0.752941
# 8 vertices, 0 vertices normals


usemtl material_0
vt 0.375000 0.000000
vt 0.625000 0.000000
vt 0.625000 0.250000
f 1/1/1 2/2/2 4/3/4
vt 0.375000 0.250000
f 1/1/1 4/3/4 3/4/3
vt 0.625000 0.500000
f 3/4/3 4/3/4 8/5/8
vt 0.375000 0.500000
f 3/4/3 8/5/8 7/6/7
vt 0.625000 0.750000
f 7/6/7 8/5/8 6/7/6
vt 0.375000 0.750000
f 7/6/7 6/7/6 5/8/5
vt 0.625000 1.000000
f 5/8/5 6/7/6 2/9/2
vt 0.375000 1.000000
f 5/8/5 2/9/2 1/10/1
vt 0.125000 0.500000
f 3/11/3 7/6/7 5/8/5
vt 0.125000 0.750000
f 3/11/3 5/8/5 1/12/1
vt 0.875000 0.500000
vt 0.875000 0.750000
f 8/5/8 4/13/4 2/14/2
f 8/5/8 2/14/2 6/7/6
# 12 faces, 14 coords texture

# End of File